<mxfile host="Electron" modified="2025-04-01T10:25:23.949Z" agent="Mozilla/5.0 (Windows NT 10.0; Win64; x64) AppleWebKit/537.36 (KHTML, like Gecko) draw.io/22.0.2 Chrome/114.0.5735.289 Electron/25.8.4 Safari/537.36" etag="iL14Qbs4gl5SAGgmt5jI" version="22.0.2" type="device">
  <diagram name="Page-1" id="B6ht7hdsYMJA1cn_7bjE">
    <mxGraphModel dx="2790" dy="932" grid="1" gridSize="10" guides="1" tooltips="1" connect="1" arrows="1" fold="1" page="1" pageScale="1" pageWidth="827" pageHeight="1169" math="0" shadow="0">
      <root>
        <mxCell id="0" />
        <mxCell id="1" parent="0" />
        <mxCell id="EMDbq6eZ5B8t_uPj6TfR-3" style="edgeStyle=orthogonalEdgeStyle;rounded=0;orthogonalLoop=1;jettySize=auto;html=1;exitX=0.5;exitY=1;exitDx=0;exitDy=0;entryX=0.5;entryY=0;entryDx=0;entryDy=0;" parent="1" source="EMDbq6eZ5B8t_uPj6TfR-1" target="EMDbq6eZ5B8t_uPj6TfR-2" edge="1">
          <mxGeometry relative="1" as="geometry" />
        </mxCell>
        <mxCell id="EMDbq6eZ5B8t_uPj6TfR-1" value="Dropper" style="ellipse;whiteSpace=wrap;html=1;" parent="1" vertex="1">
          <mxGeometry x="60" y="190" width="90" height="50" as="geometry" />
        </mxCell>
        <mxCell id="EMDbq6eZ5B8t_uPj6TfR-4" style="edgeStyle=orthogonalEdgeStyle;rounded=0;orthogonalLoop=1;jettySize=auto;html=1;exitX=1;exitY=0.5;exitDx=0;exitDy=0;entryX=0;entryY=0.5;entryDx=0;entryDy=0;" parent="1" source="EMDbq6eZ5B8t_uPj6TfR-2" target="EMDbq6eZ5B8t_uPj6TfR-5" edge="1">
          <mxGeometry relative="1" as="geometry">
            <mxPoint x="190" y="290" as="targetPoint" />
          </mxGeometry>
        </mxCell>
        <mxCell id="EMDbq6eZ5B8t_uPj6TfR-29" style="edgeStyle=orthogonalEdgeStyle;rounded=0;orthogonalLoop=1;jettySize=auto;html=1;exitX=0;exitY=0.5;exitDx=0;exitDy=0;entryX=1;entryY=0.5;entryDx=0;entryDy=0;" parent="1" source="EMDbq6eZ5B8t_uPj6TfR-2" target="EMDbq6eZ5B8t_uPj6TfR-12" edge="1">
          <mxGeometry relative="1" as="geometry">
            <mxPoint x="40" y="340" as="targetPoint" />
          </mxGeometry>
        </mxCell>
        <mxCell id="EMDbq6eZ5B8t_uPj6TfR-2" value="Has admin privelages?" style="rhombus;whiteSpace=wrap;html=1;" parent="1" vertex="1">
          <mxGeometry x="60" y="260" width="90" height="60" as="geometry" />
        </mxCell>
        <mxCell id="EMDbq6eZ5B8t_uPj6TfR-31" style="edgeStyle=orthogonalEdgeStyle;rounded=0;orthogonalLoop=1;jettySize=auto;html=1;exitX=0.5;exitY=1;exitDx=0;exitDy=0;entryX=0.5;entryY=1;entryDx=0;entryDy=0;" parent="1" source="EMDbq6eZ5B8t_uPj6TfR-5" target="EMDbq6eZ5B8t_uPj6TfR-2" edge="1">
          <mxGeometry relative="1" as="geometry">
            <Array as="points">
              <mxPoint x="230" y="350" />
              <mxPoint x="105" y="350" />
            </Array>
          </mxGeometry>
        </mxCell>
        <mxCell id="EMDbq6eZ5B8t_uPj6TfR-5" value="ask to run with admin privelages" style="rounded=0;whiteSpace=wrap;html=1;" parent="1" vertex="1">
          <mxGeometry x="190" y="270" width="80" height="40" as="geometry" />
        </mxCell>
        <mxCell id="EMDbq6eZ5B8t_uPj6TfR-7" value="no" style="text;html=1;align=center;verticalAlign=middle;resizable=0;points=[];autosize=1;strokeColor=none;fillColor=none;" parent="1" vertex="1">
          <mxGeometry x="140" y="270" width="40" height="30" as="geometry" />
        </mxCell>
        <mxCell id="EMDbq6eZ5B8t_uPj6TfR-9" value="yes" style="text;html=1;align=center;verticalAlign=middle;resizable=0;points=[];autosize=1;strokeColor=none;fillColor=none;" parent="1" vertex="1">
          <mxGeometry x="20" y="270" width="40" height="30" as="geometry" />
        </mxCell>
        <mxCell id="EMDbq6eZ5B8t_uPj6TfR-16" style="edgeStyle=orthogonalEdgeStyle;rounded=0;orthogonalLoop=1;jettySize=auto;html=1;exitX=0.5;exitY=1;exitDx=0;exitDy=0;entryX=0.5;entryY=0;entryDx=0;entryDy=0;" parent="1" source="EMDbq6eZ5B8t_uPj6TfR-12" target="EMDbq6eZ5B8t_uPj6TfR-15" edge="1">
          <mxGeometry relative="1" as="geometry" />
        </mxCell>
        <mxCell id="EMDbq6eZ5B8t_uPj6TfR-12" value="Create drop folder" style="rounded=0;whiteSpace=wrap;html=1;" parent="1" vertex="1">
          <mxGeometry x="-80" y="270" width="90" height="40" as="geometry" />
        </mxCell>
        <mxCell id="EMDbq6eZ5B8t_uPj6TfR-18" style="edgeStyle=orthogonalEdgeStyle;rounded=0;orthogonalLoop=1;jettySize=auto;html=1;exitX=0.5;exitY=1;exitDx=0;exitDy=0;entryX=0.5;entryY=0;entryDx=0;entryDy=0;" parent="1" source="EMDbq6eZ5B8t_uPj6TfR-15" target="EMDbq6eZ5B8t_uPj6TfR-17" edge="1">
          <mxGeometry relative="1" as="geometry" />
        </mxCell>
        <mxCell id="EMDbq6eZ5B8t_uPj6TfR-15" value="exclude folder from antivirus" style="rounded=0;whiteSpace=wrap;html=1;" parent="1" vertex="1">
          <mxGeometry x="-80" y="330" width="90" height="40" as="geometry" />
        </mxCell>
        <mxCell id="EMDbq6eZ5B8t_uPj6TfR-20" style="edgeStyle=orthogonalEdgeStyle;rounded=0;orthogonalLoop=1;jettySize=auto;html=1;exitX=0.5;exitY=1;exitDx=0;exitDy=0;entryX=0.5;entryY=0;entryDx=0;entryDy=0;" parent="1" source="EMDbq6eZ5B8t_uPj6TfR-17" target="EMDbq6eZ5B8t_uPj6TfR-19" edge="1">
          <mxGeometry relative="1" as="geometry" />
        </mxCell>
        <mxCell id="EMDbq6eZ5B8t_uPj6TfR-17" value="Recreate obfscated malicious B64 code" style="rounded=0;whiteSpace=wrap;html=1;" parent="1" vertex="1">
          <mxGeometry x="-80" y="390" width="90" height="60" as="geometry" />
        </mxCell>
        <mxCell id="EMDbq6eZ5B8t_uPj6TfR-33" style="edgeStyle=orthogonalEdgeStyle;rounded=0;orthogonalLoop=1;jettySize=auto;html=1;exitX=1;exitY=0.5;exitDx=0;exitDy=0;entryX=0;entryY=0.5;entryDx=0;entryDy=0;" parent="1" source="EMDbq6eZ5B8t_uPj6TfR-19" target="EMDbq6eZ5B8t_uPj6TfR-21" edge="1">
          <mxGeometry relative="1" as="geometry" />
        </mxCell>
        <mxCell id="EMDbq6eZ5B8t_uPj6TfR-19" value="Decode malicious B64 payload" style="rounded=0;whiteSpace=wrap;html=1;" parent="1" vertex="1">
          <mxGeometry x="-80" y="470" width="90" height="50" as="geometry" />
        </mxCell>
        <mxCell id="EMDbq6eZ5B8t_uPj6TfR-35" style="edgeStyle=orthogonalEdgeStyle;rounded=0;orthogonalLoop=1;jettySize=auto;html=1;exitX=0.5;exitY=1;exitDx=0;exitDy=0;entryX=0.5;entryY=0;entryDx=0;entryDy=0;" parent="1" source="EMDbq6eZ5B8t_uPj6TfR-21" target="EMDbq6eZ5B8t_uPj6TfR-23" edge="1">
          <mxGeometry relative="1" as="geometry" />
        </mxCell>
        <mxCell id="EMDbq6eZ5B8t_uPj6TfR-21" value="Write malicious code to excluded folder" style="rounded=0;whiteSpace=wrap;html=1;" parent="1" vertex="1">
          <mxGeometry x="40" y="465" width="90" height="60" as="geometry" />
        </mxCell>
        <mxCell id="EMDbq6eZ5B8t_uPj6TfR-27" style="edgeStyle=orthogonalEdgeStyle;rounded=0;orthogonalLoop=1;jettySize=auto;html=1;exitX=0.5;exitY=1;exitDx=0;exitDy=0;entryX=0.5;entryY=0;entryDx=0;entryDy=0;" parent="1" source="EMDbq6eZ5B8t_uPj6TfR-23" target="EMDbq6eZ5B8t_uPj6TfR-26" edge="1">
          <mxGeometry relative="1" as="geometry" />
        </mxCell>
        <mxCell id="EMDbq6eZ5B8t_uPj6TfR-23" value="start a service as SYSTEM to run the malicious code&amp;nbsp;" style="rounded=0;whiteSpace=wrap;html=1;" parent="1" vertex="1">
          <mxGeometry x="40" y="620" width="90" height="60" as="geometry" />
        </mxCell>
        <mxCell id="EMDbq6eZ5B8t_uPj6TfR-26" value="END" style="ellipse;whiteSpace=wrap;html=1;" parent="1" vertex="1">
          <mxGeometry x="40" y="710" width="90" height="50" as="geometry" />
        </mxCell>
        <mxCell id="_Mosl8-20uRBEXnwhEj4-1" value="Exclude malicious process from antivirus" style="rounded=0;whiteSpace=wrap;html=1;" vertex="1" parent="1">
          <mxGeometry x="40" y="540" width="90" height="60" as="geometry" />
        </mxCell>
        <mxCell id="_Mosl8-20uRBEXnwhEj4-2" style="edgeStyle=orthogonalEdgeStyle;rounded=0;orthogonalLoop=1;jettySize=auto;html=1;exitX=0.5;exitY=1;exitDx=0;exitDy=0;entryX=0.5;entryY=0;entryDx=0;entryDy=0;" edge="1" parent="1" source="_Mosl8-20uRBEXnwhEj4-3" target="_Mosl8-20uRBEXnwhEj4-5">
          <mxGeometry relative="1" as="geometry">
            <mxPoint x="545" y="265" as="targetPoint" />
          </mxGeometry>
        </mxCell>
        <mxCell id="_Mosl8-20uRBEXnwhEj4-3" value="Encryptor" style="ellipse;whiteSpace=wrap;html=1;" vertex="1" parent="1">
          <mxGeometry x="500" y="190" width="90" height="50" as="geometry" />
        </mxCell>
        <mxCell id="_Mosl8-20uRBEXnwhEj4-4" style="edgeStyle=orthogonalEdgeStyle;rounded=0;orthogonalLoop=1;jettySize=auto;html=1;exitX=0.5;exitY=1;exitDx=0;exitDy=0;entryX=0.5;entryY=0;entryDx=0;entryDy=0;" edge="1" parent="1" source="_Mosl8-20uRBEXnwhEj4-5" target="_Mosl8-20uRBEXnwhEj4-10">
          <mxGeometry relative="1" as="geometry" />
        </mxCell>
        <mxCell id="_Mosl8-20uRBEXnwhEj4-5" value="Escalate to Trusted Installer" style="rounded=0;whiteSpace=wrap;html=1;" vertex="1" parent="1">
          <mxGeometry x="500" y="265" width="90" height="40" as="geometry" />
        </mxCell>
        <mxCell id="_Mosl8-20uRBEXnwhEj4-6" style="edgeStyle=orthogonalEdgeStyle;rounded=0;orthogonalLoop=1;jettySize=auto;html=1;exitX=0.5;exitY=1;exitDx=0;exitDy=0;entryX=0.5;entryY=0;entryDx=0;entryDy=0;" edge="1" parent="1" source="_Mosl8-20uRBEXnwhEj4-10" target="_Mosl8-20uRBEXnwhEj4-12">
          <mxGeometry relative="1" as="geometry" />
        </mxCell>
        <mxCell id="_Mosl8-20uRBEXnwhEj4-7" style="edgeStyle=orthogonalEdgeStyle;rounded=0;orthogonalLoop=1;jettySize=auto;html=1;exitX=0.5;exitY=1;exitDx=0;exitDy=0;entryX=0.5;entryY=0;entryDx=0;entryDy=0;" edge="1" parent="1" source="_Mosl8-20uRBEXnwhEj4-10" target="_Mosl8-20uRBEXnwhEj4-18">
          <mxGeometry relative="1" as="geometry" />
        </mxCell>
        <mxCell id="_Mosl8-20uRBEXnwhEj4-8" style="edgeStyle=orthogonalEdgeStyle;rounded=0;orthogonalLoop=1;jettySize=auto;html=1;exitX=0.5;exitY=1;exitDx=0;exitDy=0;entryX=0.5;entryY=0;entryDx=0;entryDy=0;" edge="1" parent="1" source="_Mosl8-20uRBEXnwhEj4-10" target="_Mosl8-20uRBEXnwhEj4-14">
          <mxGeometry relative="1" as="geometry" />
        </mxCell>
        <mxCell id="_Mosl8-20uRBEXnwhEj4-9" style="edgeStyle=orthogonalEdgeStyle;rounded=0;orthogonalLoop=1;jettySize=auto;html=1;exitX=0.5;exitY=1;exitDx=0;exitDy=0;entryX=0.5;entryY=0;entryDx=0;entryDy=0;" edge="1" parent="1" source="_Mosl8-20uRBEXnwhEj4-10" target="_Mosl8-20uRBEXnwhEj4-16">
          <mxGeometry relative="1" as="geometry" />
        </mxCell>
        <mxCell id="_Mosl8-20uRBEXnwhEj4-10" value="Modify windows registry to:" style="rounded=0;whiteSpace=wrap;html=1;" vertex="1" parent="1">
          <mxGeometry x="500" y="330" width="90" height="40" as="geometry" />
        </mxCell>
        <mxCell id="_Mosl8-20uRBEXnwhEj4-11" style="edgeStyle=orthogonalEdgeStyle;rounded=0;orthogonalLoop=1;jettySize=auto;html=1;exitX=0.5;exitY=1;exitDx=0;exitDy=0;entryX=0.5;entryY=0;entryDx=0;entryDy=0;" edge="1" parent="1" source="_Mosl8-20uRBEXnwhEj4-12" target="_Mosl8-20uRBEXnwhEj4-20">
          <mxGeometry relative="1" as="geometry" />
        </mxCell>
        <mxCell id="_Mosl8-20uRBEXnwhEj4-12" value="Delete shadow copies" style="rounded=0;whiteSpace=wrap;html=1;" vertex="1" parent="1">
          <mxGeometry x="460" y="410" width="80" height="40" as="geometry" />
        </mxCell>
        <mxCell id="_Mosl8-20uRBEXnwhEj4-13" style="edgeStyle=orthogonalEdgeStyle;rounded=0;orthogonalLoop=1;jettySize=auto;html=1;exitX=0.5;exitY=1;exitDx=0;exitDy=0;entryX=0.5;entryY=0;entryDx=0;entryDy=0;" edge="1" parent="1" source="_Mosl8-20uRBEXnwhEj4-14" target="_Mosl8-20uRBEXnwhEj4-20">
          <mxGeometry relative="1" as="geometry" />
        </mxCell>
        <mxCell id="_Mosl8-20uRBEXnwhEj4-14" value="Disable Windows firewall" style="rounded=0;whiteSpace=wrap;html=1;" vertex="1" parent="1">
          <mxGeometry x="374" y="410" width="80" height="40" as="geometry" />
        </mxCell>
        <mxCell id="_Mosl8-20uRBEXnwhEj4-15" style="edgeStyle=orthogonalEdgeStyle;rounded=0;orthogonalLoop=1;jettySize=auto;html=1;exitX=0.5;exitY=1;exitDx=0;exitDy=0;entryX=0.5;entryY=0;entryDx=0;entryDy=0;" edge="1" parent="1" source="_Mosl8-20uRBEXnwhEj4-16" target="_Mosl8-20uRBEXnwhEj4-20">
          <mxGeometry relative="1" as="geometry" />
        </mxCell>
        <mxCell id="_Mosl8-20uRBEXnwhEj4-16" value="Delete Windows event logs" style="rounded=0;whiteSpace=wrap;html=1;" vertex="1" parent="1">
          <mxGeometry x="640" y="410" width="80" height="40" as="geometry" />
        </mxCell>
        <mxCell id="_Mosl8-20uRBEXnwhEj4-17" style="edgeStyle=orthogonalEdgeStyle;rounded=0;orthogonalLoop=1;jettySize=auto;html=1;exitX=0.5;exitY=1;exitDx=0;exitDy=0;entryX=0.5;entryY=0;entryDx=0;entryDy=0;" edge="1" parent="1" source="_Mosl8-20uRBEXnwhEj4-18" target="_Mosl8-20uRBEXnwhEj4-20">
          <mxGeometry relative="1" as="geometry" />
        </mxCell>
        <mxCell id="_Mosl8-20uRBEXnwhEj4-18" value="disable antivirus" style="rounded=0;whiteSpace=wrap;html=1;" vertex="1" parent="1">
          <mxGeometry x="550" y="410" width="80" height="40" as="geometry" />
        </mxCell>
        <mxCell id="_Mosl8-20uRBEXnwhEj4-19" style="edgeStyle=orthogonalEdgeStyle;rounded=0;orthogonalLoop=1;jettySize=auto;html=1;exitX=0.5;exitY=1;exitDx=0;exitDy=0;entryX=0.5;entryY=0;entryDx=0;entryDy=0;" edge="1" parent="1" source="_Mosl8-20uRBEXnwhEj4-20" target="_Mosl8-20uRBEXnwhEj4-22">
          <mxGeometry relative="1" as="geometry" />
        </mxCell>
        <mxCell id="_Mosl8-20uRBEXnwhEj4-20" value="start encryption process" style="rounded=0;whiteSpace=wrap;html=1;" vertex="1" parent="1">
          <mxGeometry x="500" y="500" width="90" height="40" as="geometry" />
        </mxCell>
        <mxCell id="_Mosl8-20uRBEXnwhEj4-21" style="edgeStyle=orthogonalEdgeStyle;rounded=0;orthogonalLoop=1;jettySize=auto;html=1;exitX=0.5;exitY=1;exitDx=0;exitDy=0;entryX=0.5;entryY=0;entryDx=0;entryDy=0;" edge="1" parent="1" source="_Mosl8-20uRBEXnwhEj4-22" target="_Mosl8-20uRBEXnwhEj4-23">
          <mxGeometry relative="1" as="geometry" />
        </mxCell>
        <mxCell id="_Mosl8-20uRBEXnwhEj4-22" value="Self delete&amp;nbsp;" style="rounded=0;whiteSpace=wrap;html=1;" vertex="1" parent="1">
          <mxGeometry x="500" y="560" width="90" height="40" as="geometry" />
        </mxCell>
        <mxCell id="_Mosl8-20uRBEXnwhEj4-23" value="END" style="ellipse;whiteSpace=wrap;html=1;" vertex="1" parent="1">
          <mxGeometry x="500" y="620" width="90" height="50" as="geometry" />
        </mxCell>
        <mxCell id="_Mosl8-20uRBEXnwhEj4-24" style="edgeStyle=orthogonalEdgeStyle;rounded=0;orthogonalLoop=1;jettySize=auto;html=1;exitX=0.5;exitY=1;exitDx=0;exitDy=0;entryX=0.5;entryY=0;entryDx=0;entryDy=0;" edge="1" parent="1" source="_Mosl8-20uRBEXnwhEj4-25" target="_Mosl8-20uRBEXnwhEj4-27">
          <mxGeometry relative="1" as="geometry" />
        </mxCell>
        <mxCell id="_Mosl8-20uRBEXnwhEj4-25" value="Encryption process" style="ellipse;whiteSpace=wrap;html=1;" vertex="1" parent="1">
          <mxGeometry x="1050" y="190" width="90" height="50" as="geometry" />
        </mxCell>
        <mxCell id="_Mosl8-20uRBEXnwhEj4-26" style="edgeStyle=orthogonalEdgeStyle;rounded=0;orthogonalLoop=1;jettySize=auto;html=1;exitX=0.5;exitY=1;exitDx=0;exitDy=0;entryX=0.5;entryY=0;entryDx=0;entryDy=0;" edge="1" parent="1" source="_Mosl8-20uRBEXnwhEj4-27" target="_Mosl8-20uRBEXnwhEj4-29">
          <mxGeometry relative="1" as="geometry" />
        </mxCell>
        <mxCell id="_Mosl8-20uRBEXnwhEj4-27" value="scan drives A-Z" style="rounded=0;whiteSpace=wrap;html=1;" vertex="1" parent="1">
          <mxGeometry x="1050" y="265" width="90" height="40" as="geometry" />
        </mxCell>
        <mxCell id="_Mosl8-20uRBEXnwhEj4-28" style="edgeStyle=orthogonalEdgeStyle;rounded=0;orthogonalLoop=1;jettySize=auto;html=1;exitX=0.5;exitY=1;exitDx=0;exitDy=0;entryX=0.5;entryY=0;entryDx=0;entryDy=0;" edge="1" parent="1" source="_Mosl8-20uRBEXnwhEj4-29" target="_Mosl8-20uRBEXnwhEj4-34">
          <mxGeometry relative="1" as="geometry" />
        </mxCell>
        <mxCell id="_Mosl8-20uRBEXnwhEj4-29" value="Get all files" style="rounded=0;whiteSpace=wrap;html=1;" vertex="1" parent="1">
          <mxGeometry x="1050" y="330" width="90" height="40" as="geometry" />
        </mxCell>
        <mxCell id="_Mosl8-20uRBEXnwhEj4-30" style="edgeStyle=orthogonalEdgeStyle;rounded=0;orthogonalLoop=1;jettySize=auto;html=1;exitX=0;exitY=0.5;exitDx=0;exitDy=0;entryX=1;entryY=0.5;entryDx=0;entryDy=0;" edge="1" parent="1" source="_Mosl8-20uRBEXnwhEj4-32" target="_Mosl8-20uRBEXnwhEj4-36">
          <mxGeometry relative="1" as="geometry" />
        </mxCell>
        <mxCell id="_Mosl8-20uRBEXnwhEj4-31" style="edgeStyle=orthogonalEdgeStyle;rounded=0;orthogonalLoop=1;jettySize=auto;html=1;exitX=1;exitY=0.5;exitDx=0;exitDy=0;entryX=0.5;entryY=1;entryDx=0;entryDy=0;" edge="1" parent="1" source="_Mosl8-20uRBEXnwhEj4-32" target="_Mosl8-20uRBEXnwhEj4-44">
          <mxGeometry relative="1" as="geometry" />
        </mxCell>
        <mxCell id="_Mosl8-20uRBEXnwhEj4-32" value="is counter = 100?" style="rhombus;whiteSpace=wrap;html=1;" vertex="1" parent="1">
          <mxGeometry x="1050" y="585" width="90" height="60" as="geometry" />
        </mxCell>
        <mxCell id="_Mosl8-20uRBEXnwhEj4-33" style="edgeStyle=orthogonalEdgeStyle;rounded=0;orthogonalLoop=1;jettySize=auto;html=1;exitX=0.5;exitY=1;exitDx=0;exitDy=0;entryX=0.5;entryY=0;entryDx=0;entryDy=0;" edge="1" parent="1" source="_Mosl8-20uRBEXnwhEj4-34" target="_Mosl8-20uRBEXnwhEj4-42">
          <mxGeometry relative="1" as="geometry">
            <mxPoint x="1094.6666666666665" y="455" as="targetPoint" />
          </mxGeometry>
        </mxCell>
        <mxCell id="_Mosl8-20uRBEXnwhEj4-34" value="generate AES key" style="rounded=0;whiteSpace=wrap;html=1;" vertex="1" parent="1">
          <mxGeometry x="1050" y="395" width="90" height="40" as="geometry" />
        </mxCell>
        <mxCell id="_Mosl8-20uRBEXnwhEj4-35" style="edgeStyle=orthogonalEdgeStyle;rounded=0;orthogonalLoop=1;jettySize=auto;html=1;exitX=0.5;exitY=1;exitDx=0;exitDy=0;" edge="1" parent="1" source="_Mosl8-20uRBEXnwhEj4-36">
          <mxGeometry relative="1" as="geometry">
            <mxPoint x="975.1612903225805" y="659.9999999999999" as="targetPoint" />
          </mxGeometry>
        </mxCell>
        <mxCell id="_Mosl8-20uRBEXnwhEj4-36" value="counter +1" style="rounded=0;whiteSpace=wrap;html=1;" vertex="1" parent="1">
          <mxGeometry x="930" y="595" width="90" height="40" as="geometry" />
        </mxCell>
        <mxCell id="_Mosl8-20uRBEXnwhEj4-37" style="edgeStyle=orthogonalEdgeStyle;rounded=0;orthogonalLoop=1;jettySize=auto;html=1;exitX=0.5;exitY=1;exitDx=0;exitDy=0;entryX=0.5;entryY=0;entryDx=0;entryDy=0;" edge="1" parent="1" source="_Mosl8-20uRBEXnwhEj4-38" target="_Mosl8-20uRBEXnwhEj4-32">
          <mxGeometry relative="1" as="geometry" />
        </mxCell>
        <mxCell id="_Mosl8-20uRBEXnwhEj4-38" value="create footer" style="rounded=0;whiteSpace=wrap;html=1;" vertex="1" parent="1">
          <mxGeometry x="1050" y="525" width="90" height="40" as="geometry" />
        </mxCell>
        <mxCell id="_Mosl8-20uRBEXnwhEj4-39" value="Yes" style="text;html=1;align=center;verticalAlign=middle;resizable=0;points=[];autosize=1;strokeColor=none;fillColor=none;" vertex="1" parent="1">
          <mxGeometry x="1140" y="595" width="40" height="30" as="geometry" />
        </mxCell>
        <mxCell id="_Mosl8-20uRBEXnwhEj4-40" value="No" style="text;html=1;align=center;verticalAlign=middle;resizable=0;points=[];autosize=1;strokeColor=none;fillColor=none;" vertex="1" parent="1">
          <mxGeometry x="1020" y="595" width="40" height="30" as="geometry" />
        </mxCell>
        <mxCell id="_Mosl8-20uRBEXnwhEj4-41" style="edgeStyle=orthogonalEdgeStyle;rounded=0;orthogonalLoop=1;jettySize=auto;html=1;exitX=0.5;exitY=1;exitDx=0;exitDy=0;entryX=0.5;entryY=0;entryDx=0;entryDy=0;" edge="1" parent="1" source="_Mosl8-20uRBEXnwhEj4-42" target="_Mosl8-20uRBEXnwhEj4-38">
          <mxGeometry relative="1" as="geometry" />
        </mxCell>
        <mxCell id="_Mosl8-20uRBEXnwhEj4-42" value="encrypt AES key with A&lt;font style=&quot;font-size: 9px;&quot;&gt;pub&lt;/font&gt;" style="rounded=0;whiteSpace=wrap;html=1;" vertex="1" parent="1">
          <mxGeometry x="1050" y="460" width="90" height="40" as="geometry" />
        </mxCell>
        <mxCell id="_Mosl8-20uRBEXnwhEj4-43" style="edgeStyle=orthogonalEdgeStyle;rounded=0;orthogonalLoop=1;jettySize=auto;html=1;exitX=0.5;exitY=0;exitDx=0;exitDy=0;entryX=1;entryY=0.5;entryDx=0;entryDy=0;" edge="1" parent="1" source="_Mosl8-20uRBEXnwhEj4-44" target="_Mosl8-20uRBEXnwhEj4-34">
          <mxGeometry relative="1" as="geometry" />
        </mxCell>
        <mxCell id="_Mosl8-20uRBEXnwhEj4-44" value="delete AES key in memory" style="rounded=0;whiteSpace=wrap;html=1;" vertex="1" parent="1">
          <mxGeometry x="1180" y="485" width="90" height="40" as="geometry" />
        </mxCell>
        <mxCell id="_Mosl8-20uRBEXnwhEj4-45" style="edgeStyle=orthogonalEdgeStyle;rounded=0;orthogonalLoop=1;jettySize=auto;html=1;exitX=0.5;exitY=1;exitDx=0;exitDy=0;entryX=0.5;entryY=0;entryDx=0;entryDy=0;" edge="1" parent="1" source="_Mosl8-20uRBEXnwhEj4-46" target="_Mosl8-20uRBEXnwhEj4-48">
          <mxGeometry relative="1" as="geometry" />
        </mxCell>
        <mxCell id="_Mosl8-20uRBEXnwhEj4-46" value="encrypt file and add footer + .encr extension" style="rounded=0;whiteSpace=wrap;html=1;" vertex="1" parent="1">
          <mxGeometry x="930" y="660" width="90" height="50" as="geometry" />
        </mxCell>
        <mxCell id="_Mosl8-20uRBEXnwhEj4-47" style="edgeStyle=orthogonalEdgeStyle;rounded=0;orthogonalLoop=1;jettySize=auto;html=1;exitX=1;exitY=0.5;exitDx=0;exitDy=0;entryX=0;entryY=0.5;entryDx=0;entryDy=0;" edge="1" parent="1" source="_Mosl8-20uRBEXnwhEj4-48" target="_Mosl8-20uRBEXnwhEj4-51">
          <mxGeometry relative="1" as="geometry" />
        </mxCell>
        <mxCell id="_Mosl8-20uRBEXnwhEj4-48" value="delete original file" style="rounded=0;whiteSpace=wrap;html=1;" vertex="1" parent="1">
          <mxGeometry x="930" y="730" width="90" height="40" as="geometry" />
        </mxCell>
        <mxCell id="_Mosl8-20uRBEXnwhEj4-49" style="edgeStyle=orthogonalEdgeStyle;rounded=0;orthogonalLoop=1;jettySize=auto;html=1;exitX=0.5;exitY=0;exitDx=0;exitDy=0;entryX=0.5;entryY=1;entryDx=0;entryDy=0;" edge="1" parent="1" source="_Mosl8-20uRBEXnwhEj4-51" target="_Mosl8-20uRBEXnwhEj4-32">
          <mxGeometry relative="1" as="geometry" />
        </mxCell>
        <mxCell id="_Mosl8-20uRBEXnwhEj4-50" style="edgeStyle=orthogonalEdgeStyle;rounded=0;orthogonalLoop=1;jettySize=auto;html=1;exitX=1;exitY=0.5;exitDx=0;exitDy=0;entryX=0;entryY=0.5;entryDx=0;entryDy=0;" edge="1" parent="1" source="_Mosl8-20uRBEXnwhEj4-51" target="_Mosl8-20uRBEXnwhEj4-56">
          <mxGeometry relative="1" as="geometry">
            <mxPoint x="1180" y="750" as="targetPoint" />
          </mxGeometry>
        </mxCell>
        <mxCell id="_Mosl8-20uRBEXnwhEj4-51" value="all files encrypted?" style="rhombus;whiteSpace=wrap;html=1;" vertex="1" parent="1">
          <mxGeometry x="1050" y="720" width="90" height="60" as="geometry" />
        </mxCell>
        <mxCell id="_Mosl8-20uRBEXnwhEj4-52" value="END" style="ellipse;whiteSpace=wrap;html=1;" vertex="1" parent="1">
          <mxGeometry x="1180" y="790" width="90" height="50" as="geometry" />
        </mxCell>
        <mxCell id="_Mosl8-20uRBEXnwhEj4-53" value="No" style="text;html=1;align=center;verticalAlign=middle;resizable=0;points=[];autosize=1;strokeColor=none;fillColor=none;" vertex="1" parent="1">
          <mxGeometry x="1090" y="695" width="40" height="30" as="geometry" />
        </mxCell>
        <mxCell id="_Mosl8-20uRBEXnwhEj4-54" value="Yes" style="text;html=1;align=center;verticalAlign=middle;resizable=0;points=[];autosize=1;strokeColor=none;fillColor=none;" vertex="1" parent="1">
          <mxGeometry x="1130" y="730" width="40" height="30" as="geometry" />
        </mxCell>
        <mxCell id="_Mosl8-20uRBEXnwhEj4-55" style="edgeStyle=orthogonalEdgeStyle;rounded=0;orthogonalLoop=1;jettySize=auto;html=1;exitX=0.5;exitY=1;exitDx=0;exitDy=0;entryX=0.5;entryY=0;entryDx=0;entryDy=0;" edge="1" parent="1" source="_Mosl8-20uRBEXnwhEj4-56" target="_Mosl8-20uRBEXnwhEj4-52">
          <mxGeometry relative="1" as="geometry" />
        </mxCell>
        <mxCell id="_Mosl8-20uRBEXnwhEj4-56" value="show ransomnote" style="rounded=0;whiteSpace=wrap;html=1;" vertex="1" parent="1">
          <mxGeometry x="1180" y="730" width="90" height="40" as="geometry" />
        </mxCell>
      </root>
    </mxGraphModel>
  </diagram>
</mxfile>
